{"title":"Sabotage.2014.720p.WEB-DL. x264-N3kr4","uid":10525377,"size":1906707629,"categoryP":"video","categoryS":"hd___movies","magnet":"?xt=urn:btih:736110f0cfb882aadb01884023676ab9aa5aaa3d&amp;dn=Sabotage.2014.720p.WEB-DL.+x264-N3kr4&amp;tr=udp%3A%2F%2Ftracker.openbittorrent.com%3A80&amp;tr=udp%3A%2F%2Fopen.demonii.com%3A1337&amp;tr=udp%3A%2F%2Ftracker.coppersurfer.tk%3A6969&amp;tr=udp%3A%2F%2Fexodus.desync.com%3A6969","seeders":4,"leechers":0,"uploader":"Falcon.G13","files":2,"time":1405038944,"description":" &lt;a href=&quot;http://i.imgur.com/htrUopE.jpg&quot; rel=&quot;nofollow&quot; target=&quot;_NEW&quot;&gt;http://i.imgur.com/htrUopE.jpg&lt;/a&gt; &lt;a href=&quot;\nhttp://i.imgur.com/UFoCxbY.jpg&quot; rel=&quot;nofollow&quot; target=&quot;_NEW&quot;&gt;\nhttp://i.imgur.com/UFoCxbY.jpg&lt;/a&gt; &lt;a href=&quot;\nhttp://i.imgur.com/RUf0eUx.jpg&quot; rel=&quot;nofollow&quot; target=&quot;_NEW&quot;&gt;\nhttp://i.imgur.com/RUf0eUx.jpg&lt;/a&gt; &lt;a href=&quot;\nhttp://i.imgur.com/QmQmbND.jpg&quot; rel=&quot;nofollow&quot; target=&quot;_NEW&quot;&gt;\nhttp://i.imgur.com/QmQmbND.jpg&lt;/a&gt; &lt;a href=&quot;\nhttp://i.imgur.com/hHriByN.jpg&quot; rel=&quot;nofollow&quot; target=&quot;_NEW&quot;&gt;\nhttp://i.imgur.com/hHriByN.jpg&lt;/a&gt; &lt;a href=&quot;\nhttp://i.imgur.com/V1DLSwR.jpg&quot; rel=&quot;nofollow&quot; target=&quot;_NEW&quot;&gt;\nhttp://i.imgur.com/V1DLSwR.jpg&lt;/a&gt; &lt;a href=&quot;\nhttp://i.imgur.com/xi3SQLE.jpg&quot; rel=&quot;nofollow&quot; target=&quot;_NEW&quot;&gt;\nhttp://i.imgur.com/xi3SQLE.jpg&lt;/a&gt;\n\nGeneral\nComplete name : Sabotage.2014.720p.WEB-DL. x264-N3kr4.mp4\nFormat : MPEG-4\nFormat profile : Base Media\nCodec ID : isom\nFile size : 1.78 GiB\nDuration : 1h 49mn\nOverall bit rate : 2 318 Kbps\nWriting application : Lavf55.7.100\n\nVideo\nID : 1\nFormat : AVC\nFormat/Info : Advanced Video Codec\nFormat profile : &lt;a class=&quot;__cf_email__&quot; href=&quot;/cdn-cgi/l/email-protection&quot; data-cfemail=&quot;a3eec2cacde3ef978d93&quot;&gt;[email&amp;#160;protected]&lt;/a&gt;&lt;script cf-hash='f9e31' type=&quot;text/javascript&quot;&gt;\n/* &lt;![CDATA[ */!function(){try{var t=&quot;currentScript&quot;in document?document.currentScript:function(){for(var t=document.getElementsByTagName(&quot;script&quot;),e=t.length;e--;)if(t[e].getAttribute(&quot;cf-hash&quot;))return t[e]}();if(t&amp;&amp;t.previousSibling){var e,r,n,i,c=t.previousSibling,a=c.getAttribute(&quot;data-cfemail&quot;);if(a){for(e=&quot;&quot;,r=parseInt(a.substr(0,2),16),n=2;a.length-n;n+=2)i=parseInt(a.substr(n,2),16)^r,e+=String.fromCharCode(i);e=document.createTextNode(e),c.parentNode.replaceChild(e,c)}}}catch(u){}}();/* ]]&gt; */&lt;/script&gt;\nFormat settings, CABAC : Yes\nFormat settings, ReFrames : 3 frames\nCodec ID : avc1\nCodec ID/Info : Advanced Video Coding\nDuration : 1h 49mn\nBit rate : 1 673 Kbps\nWidth : 1 280 pixels\nHeight : 720 pixels\nDisplay aspect ratio : 16:9\nFrame rate mode : Constant\nFrame rate : 23.976 fps\nColor space : YUV\nChroma subsampling : 4:2:0\nBit depth : 8 bits\nScan type : Progressive\nBits/(Pixel*Frame) : 0.076\nStream size : 1.28 GiB (72%)\nLanguage : English\n\nAudio\nID : 2\nFormat : AC-3\nFormat/Info : Audio Coding 3\nMode extension : CM (complete main)\nFormat settings, Endianness : Big\nCodec ID : ac-3\nDuration : 1h 49mn\nBit rate mode : Constant\nBit rate : 640 Kbps\nChannel(s) : 6 channels\nChannel positions : Front: L C R, Side: L R, LFE\nSampling rate : 48.0 KHz\nBit depth : 16 bits\nCompression mode : Lossy\nStream size : 502 MiB (28%)\nLanguage : English","torrent":{"xt":"urn:btih:736110f0cfb882aadb01884023676ab9aa5aaa3d","amp;dn":"Sabotage.2014.720p.WEB-DL.+x264-N3kr4","amp;tr":["udp%3A%2F%2Ftracker.openbittorrent.com%3A80","udp%3A%2F%2Fopen.demonii.com%3A1337","udp%3A%2F%2Ftracker.coppersurfer.tk%3A6969","udp%3A%2F%2Fexodus.desync.com%3A6969"],"infoHash":"736110f0cfb882aadb01884023676ab9aa5aaa3d","infoHashBuffer":{"type":"Buffer","data":[115,97,16,240,207,184,130,170,219,1,136,64,35,103,106,185,170,90,170,61]},"announce":[],"urlList":[]}}